<svg width="17" height="17" viewBox="0 0 17 17" fill="none" xmlns="http://www.w3.org/2000/svg">
<path id="Union" fill-rule="evenodd" clip-rule="evenodd" d="M12.5 4.5C12.5 6.74 10.74 8.5 8.5 8.5C6.26 8.5 4.5 6.74 4.5 4.5C4.5 2.26 6.26 0.5 8.5 0.5C10.74 0.5 12.5 2.26 12.5 4.5ZM10.9 4.5C10.9 3.14 9.86 2.1 8.5 2.1C7.14 2.1 6.1 3.14 6.1 4.5C6.1 5.86 7.14 6.9 8.5 6.9C9.86 6.9 10.9 5.86 10.9 4.5ZM0.660156 16.5001C1.38016 12.8201 4.66016 10.1001 8.50016 10.1001C12.3402 10.1001 15.6202 12.8201 16.3402 16.5001H14.6602C13.9402 13.7801 11.4602 11.7001 8.50016 11.7001C5.54016 11.7001 3.06016 13.7801 2.34016 16.5001H0.660156Z" fill="white"/>
</svg>
