<svg width="17" height="15" viewBox="0 0 17 15" fill="none" xmlns="http://www.w3.org/2000/svg">
<path id="Vector" d="M8.43009 14.681L1.63858 7.88951C0.120474 6.2116 0.120474 3.6548 1.63858 2.0568C2.43758 1.1779 3.47628 0.618595 4.67478 0.538695C5.87328 0.458795 6.99188 0.858296 7.87079 1.5774L8.43009 2.1367L8.98939 1.5774C10.6673 -0.100506 13.3839 -0.100506 15.1417 1.5774C16.0206 2.3764 16.5 3.495 16.5 4.6935C16.5 5.892 16.1005 7.0106 15.3015 7.88951L8.43009 14.681ZM4.91448 2.1367C4.83458 2.1367 4.75468 2.1367 4.75468 2.1367C3.95568 2.1367 3.31648 2.5362 2.83708 3.0955C1.87828 4.1342 1.87828 5.7322 2.83708 6.77091L8.43009 12.3639L14.103 6.77091C14.5824 6.2116 14.902 5.4925 14.902 4.7734C14.902 4.0543 14.5025 3.2553 13.9432 2.7759C12.9045 1.7372 11.2266 1.7372 10.1879 2.696L8.43009 4.4538L6.75219 2.7759C6.27278 2.3764 5.63358 2.1367 4.91448 2.1367Z" fill="white"/>
</svg>
